<svg xmlns="http://www.w3.org/2000/svg" viewBox="0 0 64 64">
  <defs>
    <linearGradient id="bg" x1="0" y1="0" x2="1" y2="1">
      <stop offset="0%" stop-color="#22c55e"/>
      <stop offset="100%" stop-color="#16a34a"/>
    </linearGradient>
    <linearGradient id="plate" x1="0" y1="0" x2="1" y2="1">
      <stop offset="0%" stop-color="#f8fafc"/>
      <stop offset="100%" stop-color="#e2e8f0"/>
    </linearGradient>
  </defs>

  <rect x="2" y="2" width="60" height="60" rx="16" fill="url(#bg)"/>
  <circle cx="32" cy="34" r="18" fill="url(#plate)"/>
  <circle cx="32" cy="34" r="11" fill="none" stroke="#cbd5e1" stroke-width="2"/>

  <rect x="18" y="14" width="3" height="14" rx="1.5" fill="#f8fafc"/>
  <rect x="22" y="14" width="3" height="14" rx="1.5" fill="#f8fafc"/>
  <rect x="26" y="14" width="3" height="14" rx="1.5" fill="#f8fafc"/>
  <rect x="22" y="28" width="3" height="11" rx="1.5" fill="#f8fafc"/>

  <path d="M43 14c2.8 0 5 2.2 5 5v12c0 2.8-2.2 5-5 5h-1v3h-3V14h4z" fill="#f8fafc"/>
  <circle cx="32" cy="34" r="2.3" fill="#86efac"/>
</svg>
